# Blender v2.92.0 OBJ File: 'Desk.blend'
# www.blender.org
mtllib Desk.mtl
o Cube
v -0.742228 0.817456 1.205803
v -0.742228 0.817456 -1.205803
v 0.721862 0.766848 0.947127
v 0.721862 0.766848 -0.947127
v -0.690620 0.254364 -1.121962
v -0.690620 0.254364 1.121962
v 0.710987 0.304971 -0.929460
v 0.710987 0.304971 0.929460
v 0.617240 -0.900068 -1.094194
v 0.531823 0.919587 -1.008777
v 0.617240 -0.900068 -1.217888
v 0.531823 0.919587 -1.303304
v 0.740933 -0.900068 -1.094194
v 0.826350 0.919587 -1.008777
v 0.740933 -0.900068 -1.217888
v 0.826350 0.919587 -1.303304
v -0.617240 -0.900068 -1.094194
v -0.531822 0.919587 -1.008777
v -0.617240 -0.900068 -1.217888
v -0.531822 0.919587 -1.303305
v -0.740933 -0.900068 -1.094194
v -0.826350 0.919587 -1.008777
v -0.740933 -0.900068 -1.217888
v -0.826350 0.919587 -1.303305
v 0.617240 -0.900068 1.094194
v 0.531823 0.919587 1.008777
v 0.617240 -0.900068 1.217887
v 0.531823 0.919587 1.303304
v 0.740933 -0.900068 1.094194
v 0.826350 0.919587 1.008777
v 0.740933 -0.900068 1.217887
v 0.826350 0.919587 1.303304
v -0.617240 -0.900068 1.094194
v -0.531822 0.919587 1.008777
v -0.617240 -0.900068 1.217887
v -0.531822 0.919587 1.303304
v -0.740933 -0.900068 1.094194
v -0.826350 0.919587 1.008777
v -0.740933 -0.900068 1.217887
v -0.826350 0.919587 1.303304
v -1.000000 1.000000 1.355451
v -0.880988 1.000000 1.475821
v -0.880988 1.000000 -1.475821
v -1.000000 1.000000 -1.355451
v 0.880988 1.000000 1.475821
v 1.000000 1.000000 1.355451
v 1.000000 1.000000 -1.355451
v 0.880988 1.000000 -1.475821
v -0.974262 0.817456 -1.317466
v -0.855250 0.817456 -1.437837
v -0.890899 0.817456 -1.354473
v -0.855250 0.817456 1.437837
v -0.974262 0.817456 1.317466
v -0.890899 0.817456 1.354473
v 0.855250 0.817456 -1.437837
v 0.974262 0.817456 -1.317466
v 0.890899 0.817456 -1.354473
v 0.974262 0.817456 1.317466
v 0.855250 0.817456 1.437837
v 0.890899 0.817456 1.354473
v 0.742228 0.817456 1.205803
v 0.742228 0.817456 -1.205803
v 0.690620 0.254364 1.121962
v 0.690620 0.254364 -1.121962
v 0.919468 0.762195 0.947127
v 0.919468 0.762195 -0.947127
v 0.908593 0.300319 0.929460
v 0.908593 0.300319 -0.929460
v 0.892972 0.462747 0.062087
v 0.892972 0.580844 0.100459
v 0.892972 0.653834 0.000000
v 0.892972 0.580844 -0.100459
v 0.892972 0.462747 -0.062087
v 0.998603 0.533981 0.100459
v 0.998603 0.652078 0.062087
v 0.998603 0.652078 -0.062087
v 0.998603 0.533981 -0.100459
v 0.998603 0.460992 0.000000
v 1.063886 0.566622 0.000000
vt 0.753641 0.520687
vt 0.783828 0.500000
vt 1.230738 0.500000
vt 1.260924 0.520687
vt 1.260924 0.986595
vt 1.230738 1.007283
vt 0.783828 1.007283
vt 0.753641 0.986595
vt 0.246359 0.521234
vt 0.246359 0.986049
vt -0.200516 0.540932
vt -0.200516 0.966351
vt -0.239221 0.992577
vt -0.260924 0.986049
vt -0.260924 0.521234
vt -0.239221 0.514706
vt 0.246359 -0.493332
vt 0.753641 -0.493878
vt 0.753641 -0.027970
vt 0.246359 -0.028517
vt 0.185950 0.540932
vt 0.185950 0.540932
vt -0.200516 0.540932
vt 0.246359 0.023701
vt 0.753641 0.022904
vt 0.753641 0.469814
vt 0.246359 0.469016
vt -0.229940 0.500000
vt 0.215375 0.500000
vt 0.224655 0.514706
vt 0.185950 0.966351
vt 0.224656 0.992577
vt 0.215375 1.007283
vt -0.229940 1.007283
vt 0.185950 0.966351
vt -0.200516 0.966351
vt 0.185950 0.925020
vt 0.185950 0.582263
vt 0.185950 0.582263
vt 0.185950 0.925020
vt 0.246359 -0.514566
vt 0.753641 -0.514566
vt 0.753641 -0.007283
vt 0.246359 -0.007283
vt 0.753641 0.500000
vt 0.246359 0.500000
vt 0.753641 1.007283
vt 0.246359 1.007283
vt 0.753641 1.514566
vt 0.246359 1.514566
vt -0.260924 0.500000
vt -0.260924 1.007283
vt 0.246359 -0.514566
vt 0.246359 -0.007283
vt 0.753641 -0.007283
vt 0.753641 -0.514566
vt 0.246359 0.500000
vt 0.753641 0.500000
vt 0.246359 1.007283
vt 0.753641 1.007283
vt 0.246359 1.514566
vt 0.753641 1.514566
vt -0.260924 0.500000
vt -0.260924 1.007283
vt 0.246359 -0.514566
vt 0.246359 -0.007283
vt 0.753641 -0.007283
vt 0.753641 -0.514566
vt 0.246359 0.500000
vt 0.753641 0.500000
vt 0.246359 1.007283
vt 0.753641 1.007283
vt 0.246359 1.514566
vt 0.753641 1.514566
vt -0.260924 0.500000
vt -0.260924 1.007283
vt 0.246359 -0.514566
vt 0.753641 -0.514566
vt 0.753641 -0.007283
vt 0.246359 -0.007283
vt 0.753641 0.500000
vt 0.246359 0.500000
vt 0.753641 1.007283
vt 0.246359 1.007283
vt 0.753641 1.514566
vt 0.246359 1.514566
vt -0.260924 0.500000
vt -0.260924 1.007283
vt -0.245432 0.510497
vt 0.230690 0.510617
vt 0.246359 -0.514566
vt 0.709782 -0.514566
vt 0.753641 1.037469
vt 0.246359 1.038267
vt 0.753641 1.484379
vt 0.246359 1.483582
vt 0.185950 0.925454
vt 0.185950 0.581829
vt 0.185950 0.581829
vt 0.185950 0.925454
vt 0.727272 0.157461
vt 0.545454 0.157461
vt 0.636363 0.314921
vt 0.909090 0.157461
vt 0.818181 0.314921
vt 0.181818 0.157461
vt 0.000000 0.157461
vt 0.090909 0.314921
vt 0.363636 0.157461
vt 0.272727 0.314921
vt 0.454545 0.314921
vt 1.000000 0.314921
vt 0.727272 0.472382
vt 0.909090 0.472382
vt 0.181818 0.472382
vt 0.363636 0.472382
vt 0.545454 0.472382
vn 0.0000 1.0000 0.0000
vn 0.9902 -0.1396 0.0000
vn 0.0000 -1.0000 0.0000
vn -0.9902 -0.1396 0.0000
vn 0.0000 -0.1473 -0.9891
vn 0.0000 -0.2037 -0.9790
vn -0.0235 -0.9997 0.0000
vn -0.9958 -0.0913 0.0000
vn 0.0000 -0.1473 0.9891
vn -0.9989 -0.0469 0.0000
vn 0.0000 -0.0469 -0.9989
vn 0.9989 -0.0469 0.0000
vn 0.0000 -0.0469 0.9989
vn -0.6904 -0.2394 0.6826
vn -0.6904 -0.2394 -0.6826
vn 0.6904 -0.2394 -0.6826
vn 0.6904 -0.2394 0.6826
vn 0.0000 -0.2037 0.9790
vn 0.9277 -0.3733 0.0000
vn 0.9981 -0.0608 -0.0000
vn 0.9997 -0.0235 0.0000
vn -0.0009 -0.0382 -0.9993
vn 0.0235 0.9997 0.0000
vn -0.0009 -0.0382 0.9993
vn 0.0686 -0.8228 0.5641
vn 0.0686 -0.8228 -0.5641
vn 0.5243 -0.8515 0.0000
vn -0.1202 0.2610 0.9578
vn 0.4686 -0.2434 0.8492
vn -0.2417 0.9703 0.0000
vn 0.3845 0.7572 0.5279
vn -0.1202 0.2610 -0.9578
vn 0.3845 0.7572 -0.5279
vn 0.4686 -0.2434 -0.8492
vn 1.0000 0.0000 0.0000
usemtl Wood2
s off
f 47/1/1 48/2/1 43/3/1 44/4/1 41/5/1 42/6/1 45/7/1 46/8/1
f 56/9/2 47/1/2 46/8/2 58/10/2
f 2/11/3 1/12/3 54/13/3 53/14/3 49/15/3 51/16/3
f 53/17/4 41/18/4 44/19/4 49/20/4
f 2/11/5 62/21/5 64/22/5 5/23/5
f 50/24/6 43/25/6 48/26/6 55/27/6
f 62/21/3 2/11/3 51/16/3 50/28/3 55/29/3 57/30/3
f 1/12/3 61/31/3 60/32/3 59/33/3 52/34/3 54/13/3
f 61/31/3 62/21/3 57/30/3 56/9/3 58/10/3 60/32/3
f 5/23/3 64/22/3 63/35/3 6/36/3
f 8/37/7 7/38/7 68/39/7 67/40/7
f 1/12/8 2/11/8 5/23/8 6/36/8
f 61/31/9 1/12/9 6/36/9 63/35/9
f 9/41/10 10/42/10 12/43/10 11/44/10
f 11/44/11 12/43/11 16/45/11 15/46/11
f 15/46/12 16/45/12 14/47/12 13/48/12
f 13/48/13 14/47/13 10/49/13 9/50/13
f 11/51/3 15/46/3 13/48/3 9/52/3
f 17/53/12 19/54/12 20/55/12 18/56/12
f 19/54/11 23/57/11 24/58/11 20/55/11
f 23/57/10 21/59/10 22/60/10 24/58/10
f 21/59/13 17/61/13 18/62/13 22/60/13
f 19/63/3 17/64/3 21/59/3 23/57/3
f 25/65/10 27/66/10 28/67/10 26/68/10
f 27/66/13 31/69/13 32/70/13 28/67/13
f 31/69/12 29/71/12 30/72/12 32/70/12
f 29/71/11 25/73/11 26/74/11 30/72/11
f 27/75/3 25/76/3 29/71/3 31/69/3
f 33/77/12 34/78/12 36/79/12 35/80/12
f 35/80/13 36/79/13 40/81/13 39/82/13
f 39/82/10 40/81/10 38/83/10 37/84/10
f 37/84/11 38/83/11 34/85/11 33/86/11
f 35/87/3 39/82/3 37/84/3 33/88/3
f 49/15/3 50/89/3 51/16/3
f 52/34/3 53/14/3 54/13/3
f 55/29/3 56/90/3 57/30/3
f 58/10/3 59/33/3 60/32/3
f 52/91/14 42/92/14 41/18/14 53/17/14
f 43/25/15 50/24/15 49/20/15 44/19/15
f 47/1/16 56/9/16 55/27/16 48/26/16
f 45/93/17 59/94/17 58/10/17 46/8/17
f 59/94/18 45/93/18 42/95/18 52/96/18
f 3/97/19 4/98/19 62/21/19 61/31/19
f 7/38/19 8/37/19 63/35/19 64/22/19
f 4/98/20 7/38/20 64/22/20 62/21/20
f 8/37/20 3/97/20 61/31/20 63/35/20
f 66/99/21 65/100/21 67/40/21 68/39/21
f 7/38/22 4/98/22 66/99/22 68/39/22
f 4/98/23 3/97/23 65/100/23 66/99/23
f 3/97/24 8/37/24 67/40/24 65/100/24
s 1
f 69/101/25 73/102/26 78/103/27
f 70/104/28 69/101/25 74/105/29
f 71/106/30 70/107/28 75/108/31
f 72/109/32 71/106/30 76/110/33
f 73/102/26 72/109/32 77/111/34
f 69/101/25 78/103/27 74/105/29
f 70/104/28 74/105/29 75/112/31
f 71/106/30 75/108/31 76/110/33
f 72/109/32 76/110/33 77/111/34
f 73/102/26 77/111/34 78/103/27
f 74/105/29 78/103/27 79/113/35
f 75/112/31 74/105/29 79/114/35
f 76/110/33 75/108/31 79/115/35
f 77/111/34 76/110/33 79/116/35
f 78/103/27 77/111/34 79/117/35
o Plane
v -0.418941 1.022245 0.285688
v 0.520027 1.022245 0.885072
v 0.000552 1.022245 -0.371470
v 0.939520 1.022245 0.227914
vt 0.001931 1.006663
vt 0.001931 -0.006663
vt 0.998069 -0.006663
vt 0.998069 1.006663
vn 0.0000 1.0000 -0.0000
usemtl Paper
s off
f 80/118/36 81/119/36 83/120/36 82/121/36
o Plane.001
v -0.511039 1.032245 0.272837
v 0.510577 1.032245 -0.171261
v -0.821851 1.032245 -0.442164
v 0.199765 1.032245 -0.886262
vt 0.001931 1.006663
vt 0.001931 -0.006663
vt 0.998069 -0.006663
vt 0.998069 1.006663
vn 0.0000 1.0000 0.0000
usemtl Paper
s off
f 84/122/37 85/123/37 87/124/37 86/125/37
o Plane.002
v 0.834385 1.022245 -1.365983
v -0.253534 1.022245 -1.605467
v 0.666777 1.022245 -0.604578
v -0.421142 1.022245 -0.844061
vt 0.001931 1.006663
vt 0.001931 -0.006663
vt 0.998069 -0.006663
vt 0.998069 1.006663
vn 0.0000 1.0000 0.0000
usemtl Paper
s off
f 88/126/38 89/127/38 91/128/38 90/129/38
