# Blender v2.92.0 OBJ File: 'CorkBoard.blend'
# www.blender.org
mtllib Map.mtl
o Map_Plane.007
v -1.151514 -0.923179 -0.000000
v 1.205347 -0.667273 -0.000000
v -1.333122 0.749414 0.000000
v 1.023739 1.005320 0.000000
vt 0.000000 0.000000
vt 1.000000 0.000000
vt 1.000000 1.000000
vt 0.000000 1.000000
vn -0.0000 -0.0000 1.0000
usemtl Map
s off
f 1/1/1 2/2/1 4/3/1 3/4/1
o Plane.007_Plane.008
v -1.047004 -0.950275 0.009665
v -1.022866 -0.905273 0.009665
v -1.199382 -0.868544 0.009665
v -1.187773 -0.816822 0.009665
v -1.069752 -0.923587 0.009665
v -1.034935 -0.927774 0.009665
v -1.038720 -0.911256 0.009665
v -1.158592 -0.846961 0.009665
v -1.187652 -0.845861 0.009665
v -1.205876 -0.850573 0.009665
vt 0.750000 0.000000
vt 1.000000 0.000000
vt 1.000000 1.000000
vt 0.750000 1.000000
vt 0.000000 0.000000
vt 0.250000 0.000000
vt 0.250000 1.000000
vt 0.000000 1.000000
vt 0.500000 0.000000
vt 0.500000 1.000000
vn 0.0000 -0.0000 1.0000
usemtl Tape
s off
f 11/5/2 6/6/2 8/7/2 12/8/2
f 5/9/2 9/10/2 14/11/2 7/12/2
f 9/10/2 10/13/2 13/14/2 14/11/2
f 10/13/2 11/5/2 12/8/2 13/14/2
o Plane.008_Plane.009
v 1.153671 0.894928 0.009665
v 1.145405 0.945321 0.009665
v 0.983037 0.866942 0.009665
v 0.960742 0.915034 0.009665
v 1.119374 0.902240 0.009665
v 1.149538 0.920124 0.009665
v 1.136475 0.930919 0.009665
v 1.002243 0.908904 0.009665
v 0.978526 0.892076 0.009665
v 0.966941 0.877239 0.009665
vt 0.750000 0.000000
vt 1.000000 0.000000
vt 1.000000 1.000000
vt 0.750000 1.000000
vt 0.000000 0.000000
vt 0.250000 0.000000
vt 0.250000 1.000000
vt 0.000000 1.000000
vt 0.500000 0.000000
vt 0.500000 1.000000
vn 0.0000 0.0000 1.0000
usemtl Tape
s off
f 21/15/3 16/16/3 18/17/3 22/18/3
f 15/19/3 19/20/3 24/21/3 17/22/3
f 19/20/3 20/23/3 23/24/3 24/21/3
f 20/23/3 21/15/3 22/18/3 23/24/3
o Plane.009_Plane.010
v 0.611582 0.813734 0.009665
v 0.660750 0.827530 0.009665
v 0.564866 0.980217 0.009665
v 0.610193 1.007702 0.009665
v 0.615050 0.848629 0.009665
v 0.636166 0.820632 0.009665
v 0.645447 0.834810 0.009665
v 0.608697 0.965777 0.009665
v 0.589346 0.987485 0.009665
v 0.573317 0.997354 0.009665
vt 0.750000 0.000000
vt 1.000000 0.000000
vt 1.000000 1.000000
vt 0.750000 1.000000
vt 0.000000 0.000000
vt 0.250000 0.000000
vt 0.250000 1.000000
vt 0.000000 1.000000
vt 0.500000 0.000000
vt 0.500000 1.000000
vn 0.0000 -0.0000 1.0000
usemtl Tape
s off
f 31/25/4 26/26/4 28/27/4 32/28/4
f 25/29/4 29/30/4 34/31/4 27/32/4
f 29/30/4 30/33/4 33/34/4 34/31/4
f 30/33/4 31/25/4 32/28/4 33/34/4
