# Blender v2.92.0 OBJ File: 'CorkBoard.blend'
# www.blender.org
mtllib Pin.mtl
o Cylinder_Cylinder.001
v -1.258750 0.662875 0.055695
v -1.258750 0.670167 0.083451
v -1.249877 0.659320 0.056629
v -1.249877 0.666612 0.084385
v -1.246201 0.650738 0.058883
v -1.246201 0.658030 0.086639
v -1.249877 0.642156 0.061138
v -1.249877 0.649448 0.088894
v -1.258750 0.638601 0.062072
v -1.258750 0.645894 0.089828
v -1.267623 0.642156 0.061138
v -1.267623 0.649448 0.088894
v -1.271299 0.650738 0.058883
v -1.271299 0.658030 0.086639
v -1.267623 0.659320 0.056629
v -1.267623 0.666612 0.084385
v -1.247121 0.669622 0.084997
v -1.258750 0.674281 0.083773
v -1.242304 0.658375 0.087952
v -1.247121 0.647128 0.090907
v -1.258750 0.642469 0.092131
v -1.270379 0.647128 0.090907
v -1.275196 0.658375 0.087952
v -1.270379 0.669622 0.084997
v -1.247121 0.670895 0.089841
v -1.258750 0.675554 0.088617
v -1.242304 0.659648 0.092796
v -1.247121 0.648401 0.095751
v -1.258750 0.643742 0.096975
v -1.270379 0.648401 0.095751
v -1.275196 0.659648 0.092796
v -1.270379 0.670895 0.089841
v -1.258750 0.671132 0.052895
v -1.243726 0.665114 0.054476
v -1.237504 0.650583 0.058294
v -1.243726 0.636053 0.062112
v -1.258750 0.630034 0.063693
v -1.273774 0.636053 0.062112
v -1.279997 0.650583 0.058294
v -1.273774 0.665114 0.054476
v -1.258750 0.652033 0.051537
v -1.256545 0.651149 0.051769
v -1.255631 0.649016 0.052329
v -1.256545 0.646883 0.052890
v -1.258750 0.645999 0.053122
v -1.260956 0.646883 0.052890
v -1.261869 0.649016 0.052329
v -1.260956 0.651149 0.051769
v -1.258750 0.669565 0.046930
v -1.243726 0.663546 0.048511
v -1.237504 0.649016 0.052329
v -1.243726 0.634486 0.056147
v -1.258750 0.628467 0.057728
v -1.273774 0.634486 0.056147
v -1.279997 0.649016 0.052329
v -1.273774 0.663546 0.048511
v -1.258750 0.639259 0.002919
v -1.256545 0.638376 0.003151
v -1.255631 0.636243 0.003711
v -1.256545 0.634109 0.004272
v -1.258750 0.633226 0.004504
v -1.260956 0.634109 0.004272
v -1.261869 0.636243 0.003711
v -1.260956 0.638376 0.003151
v -1.258412 0.636093 0.000484
vt 0.771230 0.271230
vt 0.780024 0.250000
vt 0.780024 0.250000
vt 0.771230 0.271230
vt 0.728770 0.271230
vt 0.750000 0.280024
vt 0.728770 0.271230
vt 0.719976 0.250000
vt 0.728770 0.271230
vt 0.719976 0.250000
vt 0.750000 0.219976
vt 0.728770 0.228770
vt 0.728770 0.228770
vt 0.750000 0.219976
vt 0.771230 0.228770
vt 0.771230 0.228770
vt 0.750000 0.280024
vt 0.728770 0.228770
vt 0.771230 0.228770
vt 0.771230 0.271230
vt 0.719976 0.250000
vt 0.750000 0.219976
vt 0.780024 0.250000
vt 0.750000 0.280024
vt 1.000000 0.500000
vt 1.000000 1.000000
vt 0.875000 1.000000
vt 0.875000 0.500000
vt 0.750000 1.000000
vt 0.750000 0.500000
vt 0.625000 1.000000
vt 0.625000 0.500000
vt 0.500000 1.000000
vt 0.500000 0.500000
vt 0.375000 1.000000
vt 0.375000 0.500000
vt 0.250000 1.000000
vt 0.250000 0.500000
vt 0.000000 1.000000
vt 0.125000 1.000000
vt 0.125000 1.000000
vt 0.000000 1.000000
vt 0.125000 0.500000
vt 0.000000 0.500000
vt 0.500000 0.500000
vt 0.625000 0.500000
vt 0.250000 1.000000
vt 0.250000 1.000000
vt 0.125000 1.000000
vt 1.000000 1.000000
vt 0.875000 1.000000
vt 0.750000 1.000000
vt 0.625000 1.000000
vt 0.375000 1.000000
vt 0.500000 1.000000
vt 0.419706 0.419706
vt 0.250000 0.490000
vt 0.080294 0.419706
vt 0.010000 0.250000
vt 0.080294 0.080294
vt 0.250000 0.010000
vt 0.419706 0.080294
vt 0.490000 0.250000
vt 0.500000 1.000000
vt 0.375000 1.000000
vt 0.750000 1.000000
vt 0.625000 1.000000
vt 1.000000 1.000000
vt 0.875000 1.000000
vt 0.000000 1.000000
vt 1.000000 0.500000
vt 0.875000 0.500000
vt 0.875000 0.500000
vt 1.000000 0.500000
vt 0.125000 0.500000
vt 0.250000 0.500000
vt 0.750000 0.500000
vt 0.375000 0.500000
vt 0.000000 0.500000
vt 0.000000 0.500000
vt 0.125000 0.500000
vt 0.250000 0.500000
vt 0.375000 0.500000
vt 0.500000 0.500000
vt 0.625000 0.500000
vt 0.750000 0.500000
vt 0.750000 0.490000
vt 0.919706 0.419706
vt 0.990000 0.250000
vt 0.919706 0.080294
vt 0.750000 0.010000
vt 0.580294 0.080294
vt 0.510000 0.250000
vt 0.580294 0.419706
vn 0.4203 0.2021 -0.8846
vn 0.5944 -0.2043 -0.7778
vn 0.9442 -0.0949 -0.3153
vn 0.6782 0.5737 -0.4591
vn -0.6743 0.5504 -0.4922
vn -0.0066 0.8453 -0.5342
vn 0.0572 -0.1413 -0.9883
vn -0.5944 -0.2043 -0.7778
vn -0.4203 0.2021 -0.8846
vn -0.9282 -0.1035 -0.3574
vn 0.0000 -0.7792 -0.6267
vn -0.4203 -0.6108 -0.6710
vn -0.6487 -0.7308 -0.2124
vn -0.0042 -0.9898 -0.1423
vn 0.4203 -0.6108 -0.6710
vn 0.6506 -0.7364 -0.1854
vn 0.0000 0.3705 -0.9288
vn 0.0000 0.8068 0.5908
vn 0.0000 0.5622 -0.8270
vn 0.5330 0.3486 -0.7709
vn 0.4456 0.6283 0.6377
vn 0.7538 -0.1669 -0.6355
vn 0.6302 0.1973 0.7509
vn 0.5330 -0.6825 -0.5000
vn 0.4456 -0.2337 0.8642
vn 0.0000 -0.8961 -0.4439
vn 0.0000 -0.4122 0.9111
vn -0.5330 -0.6825 -0.5000
vn -0.4456 -0.2337 0.8642
vn -0.7538 -0.1669 -0.6355
vn -0.6302 0.1973 0.7509
vn -0.5330 0.3486 -0.7709
vn -0.6037 0.4515 -0.6570
vn 0.0000 0.6934 -0.7206
vn -0.4456 0.6283 0.6377
vn 0.0000 -0.6129 0.7901
vn 0.5611 -0.3881 0.7310
vn -0.8537 -0.1323 -0.5036
vn -0.7764 0.1601 0.6095
vn -0.5490 0.6911 0.4700
vn 0.6037 0.4515 -0.6570
vn 0.8537 -0.1323 -0.5036
vn 0.6037 -0.7161 -0.3502
vn -0.6037 -0.7162 -0.3502
vn 0.0000 -0.9580 -0.2867
vn 0.5490 0.6911 0.4700
vn 0.0000 0.9110 0.4123
vn -0.5490 -0.3708 0.7491
vn 0.0000 -0.5907 0.8068
vn 0.5490 -0.3708 0.7491
vn 0.7764 0.1601 0.6095
vn 0.0000 0.9221 0.3868
vn 0.5611 0.6973 0.4458
vn 0.5490 0.3708 -0.7490
vn 0.0000 0.5907 -0.8068
vn -0.5611 0.6973 0.4458
vn -0.7936 0.1546 0.5884
vn 0.7936 0.1546 0.5884
vn -0.5611 -0.3881 0.7310
vn -0.5490 0.3708 -0.7490
vn -0.7764 -0.1601 -0.6095
vn -0.5490 -0.6911 -0.4700
vn 0.0000 -0.9110 -0.4123
vn 0.5490 -0.6911 -0.4700
vn 0.7764 -0.1601 -0.6095
usemtl Metal
s 1
f 42/1/1 43/2/2 59/3/3 58/4/4
f 64/5/5 57/6/6 65/7/7
f 47/8/8 48/9/9 64/5/5 63/10/10
f 45/11/11 46/12/12 62/13/13 61/14/14
f 43/2/2 44/15/15 60/16/16 59/3/3
f 41/17/17 42/1/1 58/4/4 57/6/6
f 48/9/9 41/17/17 57/6/6 64/5/5
f 46/12/12 47/8/8 63/10/10 62/13/13
f 44/15/15 45/11/11 61/14/14 60/16/16
f 62/13/13 63/10/10 65/18/7
f 60/16/16 61/14/14 65/19/7
f 58/4/4 59/3/3 65/20/7
f 63/10/10 64/5/5 65/21/7
f 61/14/14 62/13/13 65/22/7
f 59/3/3 60/16/16 65/23/7
f 57/6/6 58/4/4 65/24/7
usemtl Plastic
f 1/25/18 2/26/19 4/27/20 3/28/21
f 3/28/21 4/27/20 6/29/22 5/30/23
f 5/30/23 6/29/22 8/31/24 7/32/25
f 7/32/25 8/31/24 10/33/26 9/34/27
f 9/34/27 10/33/26 12/35/28 11/36/29
f 11/36/29 12/35/28 14/37/30 13/38/31
f 2/39/19 16/40/32 24/41/33 18/42/34
f 13/38/31 14/37/30 16/40/32 15/43/35
f 15/43/35 16/40/32 2/39/19 1/44/18
f 7/32/25 9/34/27 37/45/36 36/46/37
f 24/41/33 23/47/38 31/48/39 32/49/40
f 4/27/20 2/26/19 18/50/34 17/51/41
f 8/31/24 6/29/22 19/52/42 20/53/43
f 14/37/30 12/35/28 22/54/44 23/47/38
f 10/33/26 8/31/24 20/53/43 21/55/45
f 16/40/32 14/37/30 23/47/38 24/41/33
f 6/29/22 4/27/20 17/51/41 19/52/42
f 12/35/28 10/33/26 21/55/45 22/54/44
f 25/56/46 26/57/47 32/58/40 31/59/39 30/60/48 29/61/49 28/62/50 27/63/51
f 22/54/44 21/55/45 29/64/49 30/65/48
f 20/53/43 19/52/42 27/66/51 28/67/50
f 17/51/41 18/50/34 26/68/47 25/69/46
f 18/42/34 24/41/33 32/49/40 26/70/47
f 23/47/38 22/54/44 30/65/48 31/48/39
f 21/55/45 20/53/43 28/67/50 29/64/49
f 19/52/42 17/51/41 25/69/46 27/66/51
f 33/71/52 34/72/53 50/73/54 49/74/55
f 13/38/31 15/43/35 40/75/56 39/76/57
f 3/28/21 5/30/23 35/77/58 34/72/53
f 9/34/27 11/36/29 38/78/59 37/45/36
f 15/43/35 1/44/18 33/79/52 40/75/56
f 1/25/18 3/28/21 34/72/53 33/71/52
f 5/30/23 7/32/25 36/46/37 35/77/58
f 11/36/29 13/38/31 39/76/57 38/78/59
f 40/75/56 33/79/52 49/80/55 56/81/60
f 38/78/59 39/76/57 55/82/61 54/83/62
f 36/46/37 37/45/36 53/84/63 52/85/64
f 34/72/53 35/77/58 51/86/65 50/73/54
f 39/76/57 40/75/56 56/81/60 55/82/61
f 37/45/36 38/78/59 54/83/62 53/84/63
f 35/77/58 36/46/37 52/85/64 51/86/65
f 42/1/1 41/17/17 49/87/55 50/88/54
f 43/2/2 42/1/1 50/88/54 51/89/65
f 44/15/15 43/2/2 51/89/65 52/90/64
f 45/11/11 44/15/15 52/90/64 53/91/63
f 46/12/12 45/11/11 53/91/63 54/92/62
f 47/8/8 46/12/12 54/92/62 55/93/61
f 48/9/9 47/8/8 55/93/61 56/94/60
f 41/17/17 48/9/9 56/94/60 49/87/55
